# xmcd
#
# Track frame offsets:
#	183
#	8493
#	13310
#	15428
#	19868
#	24570
#	28180
#	41338
#	45143
#	47805
#	56838
#	63803
#	74530
#	85035
#	96663
#	140173
#	160560
#	178108
#	192185
#	210995
#	220418
#
# Disc length: 3145 seconds
#
# Revision: 7
# Processed by: cddbd v1.5.2PL0 Copyright (c) Steve Scherf et al.
# Submitted via: audiograbber 1.83.01
#
DISCID=180c4715
DTITLE=Robert Schumann - Kinderszenen and Kreisleriana
DYEAR=1984
DGENRE=Classical
TTITLE0=Kinderszenen Op. 15 - Von fremden Ländern und Menschen
TTITLE1=Kinderszenen Op. 15 - Kuriose Geschichte
TTITLE2=Kinderszenen Op. 15 - Haschemann
TTITLE3=Kinderszenen Op. 15 - Bittendes Kind
TTITLE4=Kinderszenen Op. 15 - Glückes genug
TTITLE5=Kinderszenen Op. 15 - Wichtige Begebenheit
TTITLE6=Kinderszenen Op. 15 - Träumerei
TTITLE7=Kinderszenen Op. 15 - Am Kamin
TTITLE8=Kinderszenen Op. 15 - Ritter vom Steckenpferd
TTITLE9=Kinderszenen Op. 15 - Fast zu ernst
TTITLE10=Kinderszenen Op. 15 - Fürchtenmachen
TTITLE11=Kinderszenen Op. 15 - Kind im Einschlummern
TTITLE12=Kinderszenen Op. 15 - Der Dichter spricht
TTITLE13=Kreisleriana op. 16 - Äußerst bewegt (Agitatissimo)
TTITLE14=Kreisleriana op. 16 - Sehr innig und nicht zu rasch (con molta espress
TTITLE14=ione, non troppo presto)
TTITLE15=Kreisleriana op. 16 - Sehr aufgeregt (Molto agitato)
TTITLE16=Kreisleriana op. 16 - Sehr langsam (Lento assai)
TTITLE17=Kreisleriana op. 16 - Sehr lebhaft (Vivace assai)
TTITLE18=Kreisleriana op. 16 - Sehr langsam (Lento assai)
TTITLE19=Kreisleriana op. 16 - Sehr rasch (Molto presto)
TTITLE20=Kreisleriana op. 16 - Schnell und spielend (Vivace e scherzando)
EXTD=ID3G:  32
EXTT0=
EXTT1=
EXTT2=
EXTT3=
EXTT4=
EXTT5=
EXTT6=
EXTT7=
EXTT8=
EXTT9=
EXTT10=
EXTT11=
EXTT12=
EXTT13=
EXTT14=
EXTT15=
EXTT16=
EXTT17=
EXTT18=
EXTT19=
EXTT20=
PLAYORDER=
